<svg width="25" height="24" viewBox="0 0 25 24" fill="none" xmlns="http://www.w3.org/2000/svg">
<path d="M20.165 16.811C19.8881 17.4565 19.546 18.072 19.144 18.648C18.607 19.415 18.166 19.945 17.828 20.24C17.303 20.722 16.739 20.97 16.136 20.984C15.704 20.984 15.182 20.861 14.574 20.611C13.964 20.362 13.404 20.24 12.891 20.24C12.354 20.24 11.778 20.362 11.161 20.611C10.545 20.861 10.047 20.992 9.666 21.004C9.089 21.029 8.512 20.775 7.937 20.24C7.57 19.92 7.111 19.37 6.56 18.592C5.97 17.763 5.485 16.798 5.105 15.701C4.698 14.514 4.494 13.366 4.494 12.254C4.494 10.981 4.769 9.88202 5.32 8.96202C5.73675 8.23949 6.33255 7.63646 7.05 7.21102C7.75747 6.78669 8.56509 6.55821 9.39 6.54902C9.85 6.54902 10.453 6.69102 11.2 6.97102C11.947 7.25102 12.427 7.39302 12.636 7.39302C12.794 7.39302 13.325 7.22602 14.229 6.89502C15.082 6.58802 15.802 6.46102 16.392 6.51102C17.992 6.64002 19.193 7.27002 19.992 8.40602C18.562 9.27302 17.855 10.486 17.869 12.043C17.881 13.256 18.322 14.265 19.186 15.066C19.568 15.4316 20.0137 15.7241 20.501 15.929C20.395 16.236 20.283 16.529 20.165 16.811ZM16.498 2.38002C16.498 3.33002 16.15 4.21802 15.459 5.03902C14.623 6.01502 13.613 6.58002 12.518 6.49102C12.5037 6.37156 12.4967 6.25134 12.497 6.13102C12.497 5.21802 12.893 4.24202 13.6 3.44302C13.952 3.03902 14.4 2.70202 14.943 2.43402C15.485 2.17002 15.997 2.02402 16.479 1.99902C16.492 2.12702 16.498 2.25402 16.498 2.38002Z" fill="#2AA893"/>
</svg>
