<svg width="24" height="24" viewBox="0 0 24 24" fill="none" xmlns="http://www.w3.org/2000/svg">
<circle cx="12" cy="12" r="12" fill="#B5B5B5"/>
<rect width="16.9412" height="16.9412" transform="translate(3.52942 3.5293)" fill="#B5B5B5"/>
<path d="M17.3018 16.7729C17.5947 16.48 17.5947 16.0052 17.3018 15.7123L13.59 12.0005L17.3028 8.28766C17.5957 7.99476 17.5957 7.51989 17.3028 7.227C17.0099 6.9341 16.5351 6.9341 16.2422 7.227L12.5293 10.9398L8.81652 7.22699C8.52363 6.9341 8.04876 6.9341 7.75586 7.22699C7.46297 7.51989 7.46297 7.99476 7.75586 8.28765L11.4687 12.0005L7.75688 15.7123C7.46399 16.0052 7.46399 16.48 7.75688 16.7729C8.04978 17.0658 8.52465 17.0658 8.81754 16.7729L12.5293 13.0611L16.2411 16.7729C16.534 17.0658 17.0089 17.0658 17.3018 16.7729Z" fill="white"/>
</svg>
