<svg width="25" height="27" viewBox="0 0 25 27" fill="none" xmlns="http://www.w3.org/2000/svg">
<path d="M3.5 8.97689L11.39 14.8485C11.7187 15.0933 12.1049 15.2239 12.5 15.2239C12.8951 15.2239 13.2813 15.0933 13.61 14.8485L21.5 8.97689H3.5ZM5.5 21.256H19.5C20.0304 21.256 20.5391 21.0207 20.9142 20.6021C21.2893 20.1834 21.5 19.6155 21.5 19.0234V7.86061C21.5 7.2685 21.2893 6.70064 20.9142 6.28195C20.5391 5.86327 20.0304 5.62805 19.5 5.62805H5.5C4.96957 5.62805 4.46086 5.86327 4.08579 6.28195C3.71071 6.70064 3.5 7.2685 3.5 7.86061V19.0234C3.5 19.6155 3.71071 20.1834 4.08579 20.6021C4.46086 21.0207 4.96957 21.256 5.5 21.256Z" stroke="white" stroke-width="2" stroke-linecap="round" stroke-linejoin="round"/>
</svg>
