<svg width="103" height="43" viewBox="0 0 103 43" fill="none" xmlns="http://www.w3.org/2000/svg">
<g clip-path="url(#clip0_1441_1791)">
<path d="M46.1619 36.6878V13.294C46.1619 11.5116 46.613 10.1006 47.5903 9.20939C48.5677 8.24394 49.921 7.79834 51.7254 7.79834H68.7166C69.9195 7.79834 70.9721 8.24394 71.7991 9.06086C72.6261 9.87779 73.0772 10.9175 73.0772 12.1058C73.0772 13.294 72.6261 14.2595 71.7991 15.1507C70.9721 16.0419 69.9195 16.4132 68.7166 16.4132H56.6874V20.4236H68.3407C69.5436 20.4236 70.5962 20.8692 71.4232 21.6861C72.2502 22.503 72.7013 23.5427 72.7013 24.731C72.7013 25.9192 72.2502 26.8847 71.4232 27.7759C70.5962 28.6671 69.5436 29.0384 68.3407 29.0384H56.6874V33.4201H68.7166C69.9195 33.4201 70.9721 33.8657 71.7991 34.6826C72.6261 35.4995 73.0772 36.5393 73.0772 37.7275C73.0772 38.9158 72.6261 39.8812 71.7991 40.7724C70.9721 41.6636 69.9195 42.0349 68.7166 42.0349H51.7254C49.921 42.0349 48.4925 41.5894 47.5903 40.6239C46.613 39.8812 46.1619 38.5444 46.1619 36.6878Z" fill="white"/>
<path d="M103 11.957V38.1729C103 39.584 102.549 40.698 101.646 41.6634C100.744 42.6289 99.6165 43.0745 98.2632 43.0745C97.2106 43.0745 96.2333 42.7774 95.4062 42.109C94.5041 41.4406 93.9026 40.6237 93.6019 39.6582C91.6471 41.812 89.3165 42.926 86.4595 42.926C83.2267 42.926 80.5953 41.7377 78.4902 39.4354C76.3851 37.0589 75.3325 33.8655 75.3325 29.8551C75.3325 25.919 76.3851 22.7256 78.4902 20.3491C80.5953 17.9726 83.2267 16.7843 86.4595 16.7843C89.3916 16.7843 91.7223 17.8983 93.6019 20.052V11.957C93.6019 10.6945 94.053 9.58052 94.9552 8.68933C95.8573 7.79814 96.9851 7.35254 98.2632 7.35254C99.5413 7.35254 100.669 7.79814 101.571 8.68933C102.549 9.58052 103 10.6945 103 11.957ZM93.6019 32.9743V26.5874C92.6997 25.4734 91.4216 24.9536 89.6924 24.9536C88.3391 24.9536 87.2114 25.3992 86.3092 26.2904C85.407 27.1816 84.9559 28.3698 84.9559 29.7809C84.9559 31.2662 85.407 32.4544 86.3092 33.3456C87.2114 34.2368 88.3391 34.6824 89.6924 34.6824C90.369 34.6824 91.1208 34.5339 91.8727 34.1626C92.6245 33.8655 93.1508 33.4199 93.6019 32.9743Z" fill="white"/>
<path d="M41.6511 23.6166V37.5786C41.6511 38.8411 41.2 39.9551 40.2978 40.8463C39.3956 41.7375 38.2679 42.1831 36.9898 42.1831C35.7117 42.1831 34.5839 41.7375 33.6818 40.8463C32.7796 39.9551 32.3285 38.8411 32.3285 37.5786V27.1814C32.3285 26.2902 32.1029 25.6218 31.5766 25.1762C31.1255 24.6563 30.3737 24.4335 29.3963 24.4335C27.9679 24.4335 26.6898 25.1019 25.562 26.3644V37.6529C25.562 38.9154 25.1109 40.0294 24.2088 40.9206C23.3066 41.8118 22.1788 42.2574 20.9007 42.2574C19.6226 42.2574 18.4949 41.8118 17.5927 40.9206C16.6905 40.0294 16.2394 38.9154 16.2394 37.6529V27.2556C16.2394 25.399 15.262 24.4335 13.3825 24.4335C12.0292 24.4335 10.7511 25.1019 9.54817 26.3644V37.6529C9.54817 38.9154 9.09708 40.0294 8.19489 40.9206C7.2927 41.8118 6.16496 42.2574 4.88686 42.2574C3.60876 42.2574 2.48102 41.8118 1.57883 40.9206C0.451095 39.9551 0 38.8411 0 37.5786V20.943C0 19.6062 0.451095 18.4922 1.35328 17.5268C2.25547 16.5613 3.38321 16.1157 4.7365 16.1157C5.86423 16.1157 6.84161 16.4871 7.7438 17.1554C8.64599 17.8238 9.17226 18.715 9.47299 19.6805C10.2248 18.7893 11.3526 17.9724 12.9314 17.304C14.5102 16.6356 16.1642 16.2643 17.8934 16.2643C21.6526 16.2643 24.0584 17.7496 25.1861 20.6459C26.0131 19.3834 27.2161 18.3437 28.8701 17.5268C30.4489 16.7099 32.1781 16.2643 34.0577 16.2643C36.4635 16.2643 38.4182 16.9326 39.7715 18.1952C40.9745 19.3834 41.6511 21.2401 41.6511 23.6166Z" fill="white"/>
<path d="M21.6526 13.5169C20.2993 13.5169 19.0964 12.6257 18.7205 11.2889C17.9687 8.1697 15.1117 6.01599 11.8789 6.01599C10.2249 6.01599 8.87158 4.6792 8.87158 3.04535C8.87158 1.41149 10.2249 0.074707 11.8789 0.074707C17.8935 0.074707 23.1563 4.08507 24.5847 9.87782C24.9606 11.4374 23.9833 13.0713 22.4044 13.4426C22.1037 13.5169 21.8781 13.5169 21.6526 13.5169Z" fill="url(#paint0_linear_1441_1791)"/>
<path d="M21.6524 13.5164C21.4269 13.5164 21.2013 13.5164 20.9006 13.4421C19.3218 13.0708 18.2692 11.437 18.7203 9.87737C20.1488 4.01036 25.4115 0 31.4261 0C33.0802 0 34.4334 1.33679 34.4334 2.97064C34.4334 4.60449 33.0802 5.94128 31.4261 5.94128C28.1933 5.94128 25.3364 8.09499 24.5845 11.2142C24.2086 12.6252 23.0057 13.5164 21.6524 13.5164Z" fill="url(#paint1_linear_1441_1791)"/>
</g>
<defs>
<linearGradient id="paint0_linear_1441_1791" x1="16.7684" y1="0.074707" x2="16.7684" y2="13.5169" gradientUnits="userSpaceOnUse">
<stop stop-color="#6CEDD7"/>
<stop offset="1" stop-color="#20D1B4"/>
</linearGradient>
<linearGradient id="paint1_linear_1441_1791" x1="26.5243" y1="0" x2="26.5243" y2="13.5164" gradientUnits="userSpaceOnUse">
<stop stop-color="#6CEDD7"/>
<stop offset="1" stop-color="#20D1B4"/>
</linearGradient>
<clipPath id="clip0_1441_1791">
<rect width="103" height="43" fill="white"/>
</clipPath>
</defs>
</svg>
