<svg width="18" height="18" viewBox="0 0 18 18" fill="none" xmlns="http://www.w3.org/2000/svg">
<path d="M9.75007 14.25C12.2353 14.25 14.25 12.2353 14.25 9.75C14.25 7.26472 12.2353 5.25 9.75 5.25C7.37299 5.25 5.42643 7.093 5.26134 9.428L6.96967 7.71967C7.26256 7.42678 7.73744 7.42678 8.03033 7.71967C8.32322 8.01256 8.32322 8.48744 8.03033 8.78033L5.03033 11.7803C4.88968 11.921 4.69891 12 4.5 12C4.30109 12 4.11032 11.921 3.96967 11.7803L0.96967 8.78033C0.676777 8.48744 0.676777 8.01256 0.96967 7.71967C1.26256 7.42678 1.73744 7.42678 2.03033 7.71967L3.75752 9.44686C3.91541 6.274 6.53795 3.75 9.75 3.75C13.0637 3.75 15.75 6.43629 15.75 9.75C15.75 13.0637 13.0637 15.75 9.75007 15.75C9.75009 15.75 9.75005 15.75 9.75007 15.75C9.33585 15.75 9 15.4142 9 15C9 14.5858 9.33585 14.25 9.75007 14.25C9.75005 14.25 9.75009 14.25 9.75007 14.25Z" fill="#664EFF"/>
</svg>
