<svg width="18" height="19" viewBox="0 0 18 19" fill="none" xmlns="http://www.w3.org/2000/svg">
<path d="M9.12803 4.25H3C2.58579 4.25 2.25 4.58579 2.25 5C2.25 5.41421 2.58579 5.75 3 5.75H9.12803C9.43691 6.62389 10.2703 7.25 11.25 7.25C12.2297 7.25 13.0631 6.62389 13.372 5.75H15C15.4142 5.75 15.75 5.41421 15.75 5C15.75 4.58579 15.4142 4.25 15 4.25H13.372C13.0631 3.37611 12.2297 2.75 11.25 2.75C10.2703 2.75 9.43691 3.37611 9.12803 4.25Z" fill="white"/>
<path d="M6 7.25C6.97966 7.25 7.81309 7.87611 8.12197 8.75H15C15.4142 8.75 15.75 9.08579 15.75 9.5C15.75 9.91421 15.4142 10.25 15 10.25H8.12197C7.81309 11.1239 6.97966 11.75 6 11.75C5.02034 11.75 4.18691 11.1239 3.87803 10.25H3C2.58579 10.25 2.25 9.91421 2.25 9.5C2.25 9.08579 2.58579 8.75 3 8.75H3.87803C4.18691 7.87611 5.02034 7.25 6 7.25Z" fill="white"/>
<path d="M2.25 14C2.25 13.5858 2.58579 13.25 3 13.25H10.628C10.9369 12.3761 11.7703 11.75 12.75 11.75C13.7297 11.75 14.5631 12.3761 14.872 13.25H15C15.4142 13.25 15.75 13.5858 15.75 14C15.75 14.4142 15.4142 14.75 15 14.75H14.872C14.5631 15.6239 13.7297 16.25 12.75 16.25C11.7703 16.25 10.9369 15.6239 10.628 14.75H3C2.58579 14.75 2.25 14.4142 2.25 14Z" fill="white"/>
</svg>
