<svg width="19" height="19" viewBox="0 0 19 19" fill="none" xmlns="http://www.w3.org/2000/svg">
<g clip-path="url(#clip0_2584_4800)">
<path d="M13.6033 3.51803H6.22546L6.42434 0.86377H13.6034V3.51803H13.6033Z" fill="#7F4AFF"/>
<path d="M8.17204 8.28769L5.23582 2.8486C4.87266 2.21192 5.09432 1.40139 5.73086 1.03819C6.3675 0.675271 7.17803 0.897036 7.54126 1.53322L10.9415 7.78566C11.2295 8.29047 9.86857 9.31573 9.44097 9.24208C9.01333 9.16842 8.60931 9.09512 8.17204 8.28769Z" fill="#A97DFF"/>
<path d="M9.89769 11.1517C8.61358 11.1517 7.56891 10.107 7.56891 8.82293C7.56891 7.53881 8.61358 6.49414 9.89769 6.49414C11.1818 6.49414 12.2265 7.53884 12.2265 8.82293C12.2265 10.107 11.1818 11.1517 9.89769 11.1517ZM9.89769 7.21801C9.01274 7.21801 8.29281 7.93797 8.29281 8.82293C8.29281 9.70788 9.01278 10.4278 9.89769 10.4278C10.7826 10.4278 11.5026 9.70788 11.5026 8.82293C11.5026 7.93797 10.7826 7.21801 9.89769 7.21801Z" fill="#C6C6C6"/>
<path d="M14 14.034C14 16.2996 12.1634 18.1363 9.89772 18.1363C7.63208 18.1363 5.79541 16.2996 5.79541 14.034C5.79541 11.7683 7.63208 9.93164 9.89772 9.93164C12.1634 9.93164 14 11.7683 14 14.034Z" fill="#FFD60D"/>
<path d="M9.75747 15.8551L8.52553 16.5028C8.30443 16.619 8.046 16.4313 8.08822 16.1851L8.32348 14.8133C8.33175 14.7651 8.32817 14.7157 8.31307 14.6692C8.29797 14.6227 8.27179 14.5806 8.23679 14.5465L7.24014 13.575C7.06127 13.4006 7.15999 13.0968 7.40717 13.0609L8.78452 12.8608C8.83288 12.8537 8.87881 12.8351 8.91834 12.8063C8.95787 12.7776 8.98983 12.7397 9.01146 12.6959L9.62743 11.4478C9.738 11.2238 10.0574 11.2238 10.168 11.4478L10.7839 12.6959C10.8056 12.7397 10.8375 12.7776 10.8771 12.8063C10.9166 12.835 10.9625 12.8537 11.0109 12.8608L12.3882 13.0609C12.6354 13.0968 12.7341 13.4006 12.5552 13.575L11.5586 14.5465C11.5236 14.5806 11.4974 14.6227 11.4823 14.6692C11.4672 14.7157 11.4637 14.7651 11.4719 14.8133L11.7072 16.1851C11.7494 16.4313 11.491 16.619 11.2699 16.5028L10.0379 15.8551C9.99467 15.8323 9.94655 15.8205 9.89769 15.8205C9.84884 15.8205 9.80071 15.8323 9.75747 15.8551Z" fill="#FFE780"/>
<path d="M4.86646 11.3724C5.6746 11.1677 6.31075 10.5315 6.51547 9.72334C6.53516 9.64561 6.63518 9.64561 6.65486 9.72334C6.85958 10.5315 7.49573 11.1677 8.30387 11.3724C8.3816 11.3921 8.3816 11.4921 8.30387 11.5118C7.49573 11.7164 6.85958 12.3526 6.65486 13.1607C6.63518 13.2384 6.53516 13.2384 6.51547 13.1607C6.31075 12.3526 5.6746 11.7165 4.86646 11.5118C4.78873 11.4921 4.78873 11.3921 4.86646 11.3724Z" fill="#A4ECF4"/>
<path d="M14.7374 2.87903L11.3311 8.64772C11.2341 8.80605 11.104 8.94149 10.9496 9.04475C10.7953 9.148 10.6205 9.21661 10.4371 9.24587H9.58177L9.31992 8.41558L9.34074 8.41266C8.98119 8.15131 8.75106 7.86159 8.88951 7.63564L12.4443 1.54113C12.8064 0.950046 13.5619 0.686901 14.1848 0.991249C14.8992 1.34039 15.1429 2.21736 14.7374 2.87903Z" fill="#A97DFF"/>
</g>
<defs>
<clipPath id="clip0_2584_4800">
<rect width="18" height="18" fill="white" transform="translate(0.870667 0.5)"/>
</clipPath>
</defs>
</svg>
