<svg width="21" height="18" viewBox="0 0 21 18" fill="none" xmlns="http://www.w3.org/2000/svg">
<path fill-rule="evenodd" clip-rule="evenodd" d="M7.92382 1.36754C8.19605 0.55086 8.96033 0 9.82119 0H11.1004C12.205 0 13.1004 0.895431 13.1004 2V6H18.4824C19.9692 6 20.9361 7.56463 20.2712 8.89443L16.2712 16.8944C15.9325 17.572 15.2399 18 14.4824 18H7.71846C6.96092 18 6.26839 17.572 5.92961 16.8944L4.39124 13.8177C4.15403 13.3433 4.11499 12.794 4.28273 12.2908L7.92382 1.36754Z" fill="white"/>
<path fill-rule="evenodd" clip-rule="evenodd" d="M3.41666 6.05132C3.9406 6.22596 4.22376 6.79228 4.04911 7.31623L2.31108 12.5303C2.22722 12.7819 2.24673 13.0565 2.36534 13.2938L3.99486 16.5528C4.24185 17.0468 4.04162 17.6474 3.54764 17.8944C3.05367 18.1414 2.45299 17.9412 2.206 17.4472L0.576487 14.1882C0.220661 13.4765 0.162112 12.6527 0.413718 11.8979L2.15175 6.68377C2.32639 6.15983 2.89271 5.87667 3.41666 6.05132Z" fill="white"/>
</svg>
